<svg width="28" height="18" viewBox="0 0 28 18" fill="none" xmlns="http://www.w3.org/2000/svg">
<path d="M27.7652 11.7866L27.9662 13.8325C27.9591 13.854 27.9559 13.8765 27.9568 13.8991C28.1342 14.6497 27.7435 15.1315 27.1849 15.5943C26.1346 16.4679 24.9128 17.1284 23.5924 17.5364C22.6006 17.8206 21.5815 17.94 20.5529 17.9965L19.881 17.2959C19.5897 16.9358 19.2988 16.5757 19.0081 16.2156C19.1025 16.1245 19.2374 16.1181 19.3554 16.078C19.9933 15.8649 20.6284 15.6453 21.1965 15.2828C21.8933 14.9392 22.5162 14.4708 23.0319 13.9027L22.9715 13.8198L21.5418 14.5877C20.3068 15.153 19.0164 15.598 17.6898 15.9159L15.4694 16.2119C14.3899 16.2119 13.3094 16.2429 12.2308 16.1837C11.7939 16.1263 11.3542 16.0808 10.9201 16.0097C10.0536 15.8644 9.20127 15.649 8.37222 15.3657C7.14547 14.9521 6.01308 14.3636 4.8807 13.7633C4.87517 13.7549 4.86885 13.747 4.86183 13.7396C4.86183 13.7396 4.84956 13.7396 4.8439 13.7396L4.88542 13.7597C4.98544 14.0694 5.26288 14.237 5.49218 14.431C6.40783 15.1948 7.48408 15.758 8.64682 16.0817C8.94124 16.1664 8.96294 16.2502 8.76572 16.467C8.4411 16.8241 8.12215 17.1884 7.83433 17.5738C7.60125 17.8853 7.32854 18.0502 6.92748 17.9864C6.61891 17.9126 6.29335 17.9637 5.99327 17.9081C4.3164 17.5947 2.7254 17.0646 1.34955 16.0452C1.34955 16.0197 1.33257 16.0097 1.30614 16.0133C1.25613 15.9751 1.22782 15.8904 1.13629 15.9405H1.15044C1.15044 15.9314 1.16176 15.9204 1.15893 15.914C1.15001 15.9005 1.13991 15.8877 1.12874 15.8758C0.822992 15.5943 0.525741 15.3037 0.20773 15.0359C0.136557 14.9797 0.0806332 14.9076 0.0447906 14.8259C0.00894807 14.7441 -0.00573445 14.6552 0.00201407 14.5668C0.0646358 12.0809 0.501725 9.61713 1.29954 7.25283C1.82857 5.62807 2.50988 4.05324 3.335 2.54784C3.43298 2.36764 3.57602 2.21391 3.75114 2.10058C5.56673 0.911806 7.55312 0.18761 9.74523 0.00542251C10.0538 -0.0209947 10.2661 0.0664429 10.3982 0.334259C8.38354 0.904507 6.46792 1.6779 4.76274 2.89492C4.89297 2.96506 4.98922 2.88124 5.0883 2.83752C6.02931 2.43005 6.99595 2.08017 7.98249 1.78994C9.02711 1.47931 10.0991 1.28619 11.1701 1.09034C11.826 1.05846 12.4752 0.965542 13.1311 0.929105C14.9013 0.831634 16.6386 1.04206 18.3655 1.38457C18.4599 1.40279 18.5542 1.4119 18.642 1.42556C18.6838 1.44628 18.7274 1.46365 18.7722 1.47749C20.1994 1.80343 21.59 2.26353 22.9243 2.85119C22.9903 2.88034 23.0564 2.95594 23.164 2.88124C22.5527 2.42135 21.8933 2.02445 21.1965 1.69702C20.0641 1.15046 18.9034 0.668585 17.6634 0.39166V0.400756C17.6634 0.353387 17.6228 0.347932 17.5851 0.343377C17.6946 0.079205 17.8918 -0.0209965 18.1881 0.00359885C20.4321 0.185787 22.4591 0.92819 24.3086 2.15522C24.4521 2.24632 24.5209 2.39116 24.6323 2.50412C25.4664 4.06759 26.1661 5.69452 26.7244 7.36852L27.3953 9.73697C27.5186 10.422 27.6419 11.1052 27.7652 11.7866ZM16.8821 12.242C17.8069 12.9344 19.1751 12.8278 20.0141 11.997C20.886 11.1334 20.97 9.74245 20.2028 8.84426C19.5904 8.05539 18.7732 7.75841 17.7861 7.96793C16.7698 8.18382 16.1441 8.82786 15.9063 9.78981C15.7927 10.2461 15.8251 10.725 15.9993 11.1632C16.1735 11.6013 16.4813 11.9782 16.8821 12.2439V12.242ZM9.68484 12.6975C10.0088 12.6951 10.3292 12.6311 10.6275 12.509C10.9258 12.3869 11.1962 12.2092 11.4232 11.986C11.6503 11.7629 11.8295 11.4987 11.9506 11.2086C12.0717 10.9185 12.1323 10.6081 12.1289 10.2954C12.1242 9.65778 11.8578 9.04798 11.3882 8.5996C10.9186 8.15122 10.284 7.90083 9.6235 7.90326C8.34107 7.89597 7.25116 8.99183 7.24266 10.2963C7.2383 10.6088 7.29804 10.919 7.41844 11.2091C7.53884 11.4992 7.71752 11.7634 7.94418 11.9865C8.17085 12.2096 8.44101 12.3872 8.73911 12.5091C9.0372 12.631 9.35734 12.6947 9.68106 12.6966L9.68484 12.6975Z" fill="url(#paint0_linear_65:404)"/>
<defs>
<linearGradient id="paint0_linear_65:404" x1="14" y1="0" x2="14" y2="18" gradientUnits="userSpaceOnUse">
<stop stop-color="#22070E"/>
<stop offset="1" stop-color="#010204"/>
</linearGradient>
</defs>
</svg>
