<svg width="23" height="20" viewBox="0 0 23 20" fill="none" xmlns="http://www.w3.org/2000/svg">
<path d="M23 2.45685C22.4407 3.36321 21.7354 4.15693 20.9165 4.8013C20.7543 4.93145 20.7028 5.0604 20.7079 5.27972C20.7645 7.61152 20.2873 9.82523 19.3408 11.9232C18.21 14.431 16.5614 16.4615 14.3292 17.9329C12.7461 18.9771 11.02 19.5983 9.17456 19.861C7.88167 20.0493 6.57057 20.0463 5.27847 19.852C3.41722 19.5741 1.63317 18.8757 0.0457929 17.8034C0.0289532 17.786 0.0136287 17.767 0 17.7467C2.55443 17.995 4.8499 17.3292 6.9458 15.6535C6.58847 15.6234 6.29164 15.6017 6.00329 15.5246C4.3778 15.0889 3.25098 14.0399 2.61096 12.3974C2.51315 12.1468 2.53011 12.1341 2.78962 12.1727C3.35058 12.2523 3.92031 12.2262 4.47279 12.0956C4.51193 12.0824 4.5498 12.0652 4.58587 12.0444C1.872 11.3279 0.774578 8.7485 0.89331 7.05478C1.2056 7.23459 1.53601 7.37608 1.87822 7.47655C2.21745 7.57175 2.56291 7.65731 2.96829 7.63622C1.95059 6.8463 1.28795 5.83886 1.02109 4.5633C0.754225 3.28774 0.943627 2.09293 1.53446 0.954743C1.62209 0.975832 1.65206 1.04632 1.69447 1.09935C3.67898 3.58017 6.16499 5.17829 9.15251 5.8937C9.81541 6.04249 10.4872 6.14215 11.163 6.19195C11.3326 6.20701 11.3202 6.14315 11.3004 6.00337C11.0319 4.12407 11.509 2.50446 12.862 1.23914C13.9583 0.214832 15.2576 -0.167774 16.7067 0.0666111C17.6901 0.220805 18.5999 0.711396 19.299 1.46448C19.3346 1.50906 19.3818 1.54138 19.4346 1.55736C19.4874 1.57335 19.5435 1.57227 19.5958 1.55426C20.508 1.34142 21.3866 0.989531 22.2045 0.509464C22.261 0.475119 22.3232 0.446198 22.4273 0.388957C22.0637 1.5639 21.3971 2.42552 20.4167 3.12326C20.7226 3.10863 21.026 3.05791 21.3214 2.97202C21.599 2.90032 21.8754 2.82259 22.1474 2.73101C22.4193 2.63942 22.7003 2.52373 22.9763 2.41949C22.9833 2.43257 22.9912 2.44507 23 2.45685Z" fill="url(#paint0_linear_65:407)"/>
<defs>
<linearGradient id="paint0_linear_65:407" x1="11.5" y1="0" x2="11.5" y2="20" gradientUnits="userSpaceOnUse">
<stop stop-color="#22070E"/>
<stop offset="1" stop-color="#010204"/>
</linearGradient>
</defs>
</svg>
